<svg width="160" height="160" viewBox="0 0 160 160" fill="none" xmlns="http://www.w3.org/2000/svg">
<path d="M70 5.77346C76.188 2.2008 83.812 2.2008 90 5.77346L139.282 34.2266C145.47 37.7993 149.282 44.4017 149.282 51.5469V108.453C149.282 115.598 145.47 122.201 139.282 125.773L90 154.227C83.812 157.799 76.188 157.799 70 154.227L20.7178 125.773C14.5299 122.201 10.7179 115.598 10.7178 108.453V51.5469C10.7178 44.4017 14.5299 37.7993 20.7178 34.2266L70 5.77346ZM89.375 10.4121C83.5738 7.06287 76.4262 7.06287 70.625 10.4121L24.4229 37.0869C18.6216 40.4363 15.0479 46.6265 15.0479 53.3252V106.675C15.048 113.373 18.6219 119.563 24.4229 122.912L70.625 149.587C76.4263 152.936 83.5737 152.936 89.375 149.587L135.577 122.912C141.378 119.563 144.952 113.373 144.952 106.675V53.3252C144.952 46.6265 141.378 40.4363 135.577 37.0869L89.375 10.4121Z" fill="url(#paint0_linear_21_2)"/>
<path d="M75 42.8868C78.094 41.1004 81.906 41.1004 85 42.8868L109.641 57.1132C112.735 58.8996 114.641 62.2008 114.641 65.7735V94.2265C114.641 97.7992 112.735 101.1 109.641 102.887L85 117.113C81.906 118.9 78.094 118.9 75 117.113L50.359 102.887C47.265 101.1 45.359 97.7992 45.359 94.2265V65.7735C45.359 62.2008 47.265 58.8996 50.359 57.1132L75 42.8868Z" fill="url(#paint1_linear_21_2)"/>
<defs>
<linearGradient id="paint0_linear_21_2" x1="31.933" y1="3.09396" x2="128.067" y2="156.906" gradientUnits="userSpaceOnUse">
<stop offset="0.0576923" stop-color="#0152CD"/>
<stop offset="0.769231" stop-color="#9202FF"/>
</linearGradient>
<linearGradient id="paint1_linear_21_2" x1="52.2486" y1="40" x2="99.8103" y2="124.471" gradientUnits="userSpaceOnUse">
<stop offset="0.0576923" stop-color="#0152CD"/>
<stop offset="0.769231" stop-color="#9202FF"/>
</linearGradient>
</defs>
</svg>
