<svg width="130" height="130" viewBox="0 0 130 130" fill="none" xmlns="http://www.w3.org/2000/svg">
<g clip-path="url(#clip0_8_4)">
<rect x="86.6667" y="65.8774" width="33.6147" height="10.1832" transform="rotate(-68.2 86.6667 65.8774)" fill="#0152CD"/>
<path d="M19.5 91C30.2696 91 39 99.7304 39 110.5C39 121.27 30.2696 130 19.5 130C8.73045 130 0 121.27 0 110.5C0 99.7304 8.73045 91 19.5 91ZM19.5 92.5596C9.59202 92.5596 1.55957 100.592 1.55957 110.5C1.55957 120.408 9.59201 128.44 19.5 128.44C29.408 128.44 37.4404 120.408 37.4404 110.5C37.4404 100.592 29.408 92.5596 19.5 92.5596Z" fill="#0152CD"/>
<circle cx="19.5" cy="110.5" r="14.625" fill="#0152CD"/>
<path d="M84.5 65C95.2696 65 104 73.7304 104 84.5C104 95.2696 95.2696 104 84.5 104C73.7304 104 65 95.2696 65 84.5C65 73.7304 73.7304 65 84.5 65ZM84.5 66.5596C74.592 66.5596 66.5596 74.592 66.5596 84.5C66.5596 94.408 74.592 102.44 84.5 102.44C94.408 102.44 102.44 94.408 102.44 84.5C102.44 74.592 94.408 66.5596 84.5 66.5596Z" fill="#0152CD"/>
<circle cx="84.5" cy="84.5" r="14.625" fill="#0152CD"/>
<rect x="34.6667" y="99.1501" width="33.6147" height="10.1832" transform="rotate(-21.8 34.6667 99.1501)" fill="#0152CD"/>
<path d="M130 19.5C130 8.73045 121.27 0 110.5 0C99.7304 0 91 8.73045 91 19.5C91 30.2696 99.7304 39 110.5 39C121.27 39 130 30.2696 130 19.5ZM128.44 19.5C128.44 29.408 120.408 37.4404 110.5 37.4404C100.592 37.4404 92.5596 29.408 92.5596 19.5C92.5596 9.59201 100.592 1.55957 110.5 1.55957C120.408 1.55957 128.44 9.59201 128.44 19.5Z" fill="#0152CD"/>
<circle cx="14.625" cy="14.625" r="14.625" transform="matrix(0 -1 -1 0 125.125 34.125)" fill="#0152CD"/>
<path d="M65 45.5C65 34.7304 56.2696 26 45.5 26C34.7304 26 26 34.7304 26 45.5C26 56.2696 34.7304 65 45.5 65C56.2696 65 65 56.2696 65 45.5ZM63.4404 45.5C63.4404 55.408 55.408 63.4404 45.5 63.4404C35.592 63.4404 27.5596 55.408 27.5596 45.5C27.5596 35.592 35.592 27.5596 45.5 27.5596C55.408 27.5596 63.4404 35.592 63.4404 45.5Z" fill="#0152CD"/>
<circle cx="14.625" cy="14.625" r="14.625" transform="matrix(0 -1 -1 0 60.125 60.125)" fill="#0152CD"/>
<rect width="33.6147" height="10.1832" transform="matrix(0.371368 -0.928486 -0.928486 -0.371368 30.8499 95.3333)" fill="#0152CD"/>
</g>
<defs>
<clipPath id="clip0_8_4">
<rect width="130" height="130" fill="white"/>
</clipPath>
</defs>
</svg>
